<svg xmlns="http://www.w3.org/2000/svg" xmlns:xlink="http://www.w3.org/1999/xlink" width="18.95" height="17.014" viewBox="0 0 18.95 17.014">
  <defs>
    <clipPath id="clip-path">
      <path id="Clip_2" data-name="Clip 2" d="M0,0H18.95V17.014H0Z" transform="translate(0 0.925)" fill="none"/>
    </clipPath>
  </defs>
  <g id="Group_3" data-name="Group 3" transform="translate(0 -0.925)">
    <path id="Clip_2-2" data-name="Clip 2" d="M0,0H18.95V17.014H0Z" transform="translate(0 0.925)" fill="none"/>
    <g id="Group_3-2" data-name="Group 3" clip-path="url(#clip-path)">
      <path id="Fill_1" data-name="Fill 1" d="M17.591,17.014H13.018a.387.387,0,0,1-.381-.386v-3.8a.14.14,0,0,1,.141-.141.139.139,0,0,1,.082.027,2.131,2.131,0,0,0,.836.376,2.04,2.04,0,0,0,1.562-.325,12.971,12.971,0,0,0,2.476-2.241.139.139,0,0,1,.1-.044.143.143,0,0,1,.146.136v6.016A.387.387,0,0,1,17.591,17.014Zm-6.316-.12a.387.387,0,0,1-.1-.013L6.6,15.633a.389.389,0,0,1-.284-.373V5.368a.357.357,0,0,1,.014-.1A.384.384,0,0,1,6.8,5l1.215.328a.394.394,0,0,1,.279.343,9.576,9.576,0,0,0,3.365,6.088v4.755a.438.438,0,0,1-.014.1A.386.386,0,0,1,11.275,16.894Zm-10.889,0a.386.386,0,0,1-.373-.288.354.354,0,0,1-.014-.1V6.617a.39.39,0,0,1,.284-.374L4.859,5a.384.384,0,0,1,.473.274.394.394,0,0,1,.013.1V15.26a.389.389,0,0,1-.284.373L.486,16.88A.388.388,0,0,1,.386,16.894ZM14.1,12.151a1.057,1.057,0,0,1-.607-.19c-1.282-.881-4.264-3.329-4.264-7.019A4.905,4.905,0,0,1,13.3.067a4.66,4.66,0,0,1,4.34,1.58,5.267,5.267,0,0,1,1.267,4.144h0c-.414,3.255-3.077,5.4-4.2,6.17A1.06,1.06,0,0,1,14.1,12.151ZM14.09,2.064h-.043a2.674,2.674,0,0,0-2.629,2.717A2.672,2.672,0,1,0,14.09,2.064Z" transform="translate(0 0.925)" fill="#919191"/>
    </g>
  </g>
</svg>
