<svg xmlns="http://www.w3.org/2000/svg" width="18.967" height="19.104" viewBox="0 0 18.967 19.104">
  <g id="holidays_1_" data-name="holidays (1)" transform="translate(-0.022)">
    <ellipse id="Oval" cx="1.518" cy="1.519" rx="1.518" ry="1.519" transform="translate(6.512 0.649)" fill="#919191"/>
    <path id="Path" d="M.719,0A1.36,1.36,0,0,1,0,.238v2.41a.879.879,0,1,0,1.758,0V.982A1.236,1.236,0,0,1,.719,0Z" transform="translate(6.073 15.577)" fill="#919191"/>
    <path id="Path-2" data-name="Path" d="M0,1.653a.879.879,0,1,0,1.758,0V0H0V1.653Z" transform="translate(8.21 16.571)" fill="#919191"/>
    <path id="Path-3" data-name="Path" d="M1.359,3.608a.733.733,0,0,0,.291.307L4.513,5.552v3a2.112,2.112,0,0,1,1.3,1.934l0,.753a1.221,1.221,0,0,1,.561-.171v-.085a1.282,1.282,0,0,1,1.28-1.281h.739V5.721h.551l.091-.263a3.606,3.606,0,0,1,.661-1.2H5.2l-2.629-1.5L1.387.4a.733.733,0,1,0-1.309.659Z" transform="translate(1.56 0)" fill="#919191"/>
    <path id="Shape" d="M6.874,13.978V8.624H6.5v5.354a.868.868,0,0,1-1.735,0V12.313H5A1.234,1.234,0,0,0,6.228,11.08V8.047A1.234,1.234,0,0,0,5.063,6.816V6.731a1.283,1.283,0,0,0-.745-1.164c.566-2.924.491-2.513.528-2.809-.373,1.055-.895,2.5-1.276,3.545h.213a.427.427,0,0,1,.427.427v.936H5a.379.379,0,0,1,.379.38V11.08A.379.379,0,0,1,5,11.46H.379A.38.38,0,0,1,0,11.08V8.047a.38.38,0,0,1,.379-.38h.787V6.731a.427.427,0,0,1,.341-.418l.01,0A4.462,4.462,0,0,1,2.033,6.3s1.215-3.343,1.7-4.756C4.035.682,4.51,0,5.434,0H7.94c.774,0,1.337.5,1.672,1.472.519,1.514,1.7,4.746,1.712,4.778a.723.723,0,1,1-1.358.5c-.01-.028-.858-2.348-1.436-3.989.039.319-.085-.351,1.027,5.387a.4.4,0,0,1-.394.479H8.609v5.354a.868.868,0,0,1-1.735,0Z" transform="translate(7.621 4.258)" fill="#919191"/>
    <path id="Path-4" data-name="Path" d="M6,8.585a.537.537,0,0,0,.534-.54L6.512,4.1A1.274,1.274,0,0,0,5.241,2.835H2.827L1.392,2.287,1.066.443A.537.537,0,1,0,.008.631L.388,2.774a.537.537,0,0,0,.337.408l1.644.628v8.254a.644.644,0,1,0,1.289,0c0-4.5,0-4.031,0-4.082h.28c0,.048,0-.387,0,4.082a.644.644,0,1,0,1.289,0V9.183L5.213,4.106a.112.112,0,0,1,.224,0h0l.02,3.946a.537.537,0,0,0,.537.534Z" transform="translate(0.022 6.395)" fill="#919191"/>
    <path id="Path-5" data-name="Path" d="M0,1.39A1.389,1.389,0,1,0,1.389,0,1.384,1.384,0,0,0,0,1.39Z" transform="translate(2.438 6.038)" fill="#919191"/>
    <path id="Path-6" data-name="Path" d="M1.5,3A1.5,1.5,0,1,0,0,1.5,1.5,1.5,0,0,0,1.5,3Z" transform="translate(12.81 0.781)" fill="#919191"/>
  </g>
</svg>
