<?xml version="1.0" encoding="UTF-8"?>
<svg width="11px" height="10px" viewBox="0 0 11 10" version="1.1" xmlns="http://www.w3.org/2000/svg" xmlns:xlink="http://www.w3.org/1999/xlink">
    <title>icon (5)</title>
    <g id="Page-1" stroke="none" stroke-width="1" fill="none" fill-rule="evenodd">
        <g id="Triip--EXPERIENCES" transform="translate(-157.000000, -1276.000000)" fill="#FAA61A" fill-rule="nonzero">
            <g id="Group-5-Copy-48" transform="translate(128.000000, 1025.000000)">
                <g id="Group-8" transform="translate(15.000000, 251.000000)">
                    <g id="icon-(5)" transform="translate(14.500000, 0.000000)">
                        <path d="M9.74030303,3.75848485 C9.59060606,3.29030303 8.76666667,3.18333333 7.89424242,3.06787879 C7.41606061,3.00515152 6.87272727,2.93424242 6.70878788,2.81272727 C6.54363636,2.69212121 6.31333333,2.19606061 6.10969697,1.75757576 C5.73939394,0.96030303 5.38878788,0.208181818 4.89848485,0.206969697 L4.88939394,0.205454545 C4.40333333,0.213636364 4.04909091,0.956666667 3.67242424,1.74545455 C3.46484848,2.18151515 3.22878788,2.67575758 3.06424242,2.79545455 C2.89787879,2.91393939 2.35454545,2.98060606 1.87484848,3.03878788 C1.00333333,3.14484848 0.178181818,3.24424242 0.0242424242,3.71 C-0.12969697,4.17575758 0.472424242,4.74818182 1.11060606,5.3530303 C1.46090909,5.68575758 1.85757576,6.06272727 1.92,6.25666667 C1.98242424,6.45060606 1.87666667,6.98878788 1.78424242,7.46181818 C1.61515152,8.32363636 1.45545455,9.13969697 1.85060606,9.43151515 C1.94515152,9.49909091 2.06393939,9.53333333 2.20424242,9.53030303 C2.60757576,9.52393939 3.18787879,9.21 3.74878788,8.90575758 C4.16909091,8.67606061 4.64575758,8.4169697 4.85787879,8.41454545 C5.0630303,8.41454545 5.54121212,8.68090909 5.9630303,8.91575758 C6.53666667,9.23424242 7.13030303,9.56393939 7.53424242,9.55727273 C7.66030303,9.55545455 7.76787879,9.5230303 7.85575758,9.45969697 C8.25333333,9.17333333 8.10181818,8.35757576 7.94212121,7.49242424 C7.85424242,7.01848485 7.75575758,6.47909091 7.81787879,6.28515152 C7.88212121,6.09212121 8.28333333,5.72 8.6369697,5.38969697 C9.28090909,4.79060606 9.88878788,4.22666667 9.74030303,3.75848485 Z" id="Path"></path>
                    </g>
                </g>
            </g>
        </g>
    </g>
</svg>